{"title":"Kostas Plevris - Emeis oi Ellines","uid":6319255,"size":1137750673,"categoryP":"video","categoryS":"tv_shows","magnet":"?xt=urn:btih:eee33d86cfcd336a00ba27ab42e82749bcba9f33&amp;dn=Kostas+Plevris+-+Emeis+oi+Ellines&amp;tr=udp%3A%2F%2Ftracker.openbittorrent.com%3A80&amp;tr=udp%3A%2F%2Fopen.demonii.com%3A1337&amp;tr=udp%3A%2F%2Ftracker.coppersurfer.tk%3A6969&amp;tr=udp%3A%2F%2Fexodus.desync.com%3A6969","seeders":0,"leechers":0,"uploader":"mrcns","files":4,"time":1302808274,"description":"O K. Plevris paradidei mathimata istorias kai politikis panta me epixeirimata.\nSto plevro tou auti ti fora kai mia neari symparousiastria.\n\nPigi       : TV rip\nHmerominia : Kai oi 3 ekpompes apo to kontra channel (Martios-Aprilios 2011)\n\nEndeiktika gia tin poiotita ton arxeion:\n\nFormat                           : Windows Media\nFile size                        : 288 MiB\nDuration                         : 30mn 11s\nOverall bit rate mode            : Constant\nOverall bit rate                 : 1 336 Kbps\nMaximum Overall bit rate         : 1 342 Kbps\n\nVideo\nID                               : 2\nFormat                           : WMV2\nCodec ID                         : WMV2\nCodec ID/Info                    : Windows Media Video 8\nDescription of the codec         : Windows Media Video V8\nDuration                         : 30mn 11s\nBit rate mode                    : Constant\nBit rate                         : 1 200 Kbps\nWidth                            : 640 pixels\nHeight                           : 480 pixels\nDisplay aspect ratio             : 4:3\nFrame rate                       : 25.000 fps\nResolution                       : 24 bits\nBits/(Pixel*Frame)               : 0.156\nStream size                      : 259 MiB (90%)\nLanguage                         : Greek\n\nAudio\nID                               : 1\nFormat                           : WMA2\nFormat profile                   : L2\nCodec ID                         : 161\nCodec ID/Info                    : Windows Media Audio 2\nDescription of the codec         : Windows Media Audio 9.2 - 128 kbps, 48 kHz, stereo (A/V) 1-pass CBR\nDuration                         : 30mn 11s\nBit rate mode                    : Constant\nBit rate                         : 128 Kbps\nChannel(s)                       : 2 channels\nSampling rate                    : 48.0 KHz\nResolution                       : 16 bits\nStream size                      : 27.6 MiB (10%)\nLanguage                         : Greek","torrent":{"xt":"urn:btih:eee33d86cfcd336a00ba27ab42e82749bcba9f33","amp;dn":"Kostas+Plevris+-+Emeis+oi+Ellines","amp;tr":["udp%3A%2F%2Ftracker.openbittorrent.com%3A80","udp%3A%2F%2Fopen.demonii.com%3A1337","udp%3A%2F%2Ftracker.coppersurfer.tk%3A6969","udp%3A%2F%2Fexodus.desync.com%3A6969"],"infoHash":"eee33d86cfcd336a00ba27ab42e82749bcba9f33","infoHashBuffer":{"type":"Buffer","data":[238,227,61,134,207,205,51,106,0,186,39,171,66,232,39,73,188,186,159,51]},"announce":[],"urlList":[]}}